<svg width="316" height="344" viewBox="0 0 316 344" fill="none" xmlns="http://www.w3.org/2000/svg">
<g clip-path="url(#clip0_845_1229)">
<path d="M316 132.878C316.01 119.816 313.027 106.926 307.28 95.1999C301.534 83.4735 293.177 73.2232 282.853 65.2376L222.61 18.2684L222.521 18.1938L221.097 17.0819C206.32 5.95967 188.324 -0.0371199 169.837 0.000172889H0V296.65L60.7268 344.023H230.571C241.792 344.022 252.903 341.808 263.269 337.507C273.635 333.207 283.054 326.904 290.987 318.959C298.92 311.014 305.212 301.583 309.504 291.203C313.795 280.823 316.003 269.699 316 258.465C316.013 246.669 313.583 234.998 308.861 224.19C304.14 213.383 297.23 203.673 288.57 195.675C297.231 187.676 304.141 177.965 308.862 167.156C313.584 156.347 316.014 144.675 316 132.878Z" fill="#17C964"/>
<path d="M169.837 20.895H20.8708V275.755H169.837C182.827 275.768 195.519 271.856 206.252 264.53C216.986 257.205 225.261 246.807 229.996 234.696C234.732 222.586 235.706 209.327 232.792 196.653C229.879 183.979 223.212 172.48 213.666 163.661L197.103 148.325L213.666 132.99C223.201 124.165 229.856 112.667 232.763 99.997C235.67 87.3269 234.693 74.0736 229.96 61.968C225.227 49.8624 216.957 39.4672 206.231 32.1398C195.505 24.8125 182.822 20.8936 169.837 20.895Z" fill="white"/>
</g>
<defs>
<clipPath id="clip0_845_1229">
<rect width="316" height="344" fill="white"/>
</clipPath>
</defs>
</svg>
