<?xml version="1.0" encoding="UTF-8"?>
<svg width="1829px" height="1829px" viewBox="0 0 1829 1829" version="1.1" xmlns="http://www.w3.org/2000/svg" xmlns:xlink="http://www.w3.org/1999/xlink">
    <title>noun-escape-694343 (1)</title>
    <g id="Page-1" stroke="none" stroke-width="1" fill="none" fill-rule="evenodd">
        <g id="1" transform="translate(-267, -278)" fill="#FF4949" fill-rule="nonzero">
            <g id="Group" transform="translate(267, 278)">
                <path d="M41.4427694,0.0502561984 C17.8781946,2.27109425 -0.097466142,22.1058108 0.00459223452,45.7739998 L0.00459223452,365.840205 C-0.228617919,382.329829 8.43513148,397.667651 22.6783214,405.980518 C36.9215112,414.293385 54.5374436,414.293385 68.7806335,405.980518 C83.0238234,397.667651 91.6875728,382.329829 91.4543626,365.840205 L91.4543626,155.796758 L353.658001,417.99385 C374.088634,395.249031 395.914768,374.110944 418.673072,353.694836 L156.469434,91.4977434 L365.803674,91.4977434 C382.29371,91.7309477 397.631914,83.0674146 405.944989,68.8245804 C414.258064,54.5817461 414.258064,36.9662535 405.944989,22.7234192 C397.631914,8.48058497 382.29371,-0.182948133 365.803674,0.0502561984 L45.7294774,0.0502561984 C44.3013604,-0.0167520661 42.8708865,-0.0167520661 41.4427694,0.0502561984 L41.4427694,0.0502561984 Z M418.673072,353.694836 L855.202836,790.2137 C872.769468,806.919556 872.964164,838.705788 855.917287,855.941582 C838.87041,873.17669 807.801585,872.607658 790.902216,855.227148 L353.658001,417.99385 C219.110858,567.781588 137.179248,765.919509 137.179248,983.110743 C137.179248,1450.28246 515.90624,1829 983.089624,1829 C1450.27301,1829 1829,1450.28246 1829,983.110743 C1829,515.939024 1450.27301,137.221487 983.089624,137.221487 C766.083617,137.221487 568.417727,219.361586 418.673072,353.694836 Z" id="Shape"></path>
            </g>
        </g>
    </g>
</svg>