<svg width="16" height="16" viewBox="0 0 16 16" fill="none" xmlns="http://www.w3.org/2000/svg">
<path d="M10.6666 12L12.6666 14M12.6666 14L14.6666 12M12.6666 14V10M14.6666 6.66666H1.33331M14.6666 8V5.46666C14.6666 4.71993 14.6666 4.34656 14.5213 4.06134C14.3935 3.81046 14.1895 3.60649 13.9386 3.47865C13.6534 3.33333 13.28 3.33333 12.5333 3.33333H3.46665C2.71991 3.33333 2.34654 3.33333 2.06133 3.47865C1.81044 3.60648 1.60647 3.81046 1.47864 4.06134C1.33331 4.34656 1.33331 4.71992 1.33331 5.46666V10.5333C1.33331 11.2801 1.33331 11.6534 1.47864 11.9386C1.60647 12.1895 1.81044 12.3935 2.06133 12.5213C2.34654 12.6667 2.71991 12.6667 3.46665 12.6667H7.99998" stroke="white" stroke-width="2" stroke-linecap="round" stroke-linejoin="round"/>
</svg>
