<svg width="68" height="68" viewBox="0 0 68 68" fill="none" xmlns="http://www.w3.org/2000/svg">
<path d="M22.6667 39.6666V51M45.3334 34V51M34 22.6666V51M56.6667 19.2666V48.7333C56.6667 53.4937 56.6667 55.874 55.7403 57.6922C54.9253 59.2916 53.625 60.5919 52.0256 61.4068C50.2074 62.3333 47.8272 62.3333 43.0667 62.3333H24.9334C20.1729 62.3333 17.7927 62.3333 15.9745 61.4068C14.3751 60.5919 13.0747 59.2916 12.2598 57.6922C11.3334 55.874 11.3334 53.4937 11.3334 48.7333V19.2666C11.3334 14.5062 11.3334 12.126 12.2598 10.3077C13.0747 8.70833 14.3751 7.40799 15.9745 6.59307C17.7927 5.66663 20.1729 5.66663 24.9334 5.66663H43.0667C47.8272 5.66663 50.2074 5.66663 52.0256 6.59307C53.625 7.40799 54.9253 8.70833 55.7403 10.3077C56.6667 12.126 56.6667 14.5062 56.6667 19.2666Z" stroke="#74DFA2" stroke-width="6" stroke-linecap="round" stroke-linejoin="round"/>
</svg>
