<svg width="52" height="52" viewBox="0 0 52 52" fill="none" xmlns="http://www.w3.org/2000/svg">
<path d="M0 26C0 11.6406 11.6406 0 26 0C40.3594 0 52 11.6406 52 26C52 40.3594 40.3594 52 26 52C11.6406 52 0 40.3594 0 26Z" fill="#17C964"/>
<path d="M19.3333 28.5001C19.3333 28.5001 20.1666 27.6667 22.6666 27.6667C25.1666 27.6667 26.8333 29.3334 29.3333 29.3334C31.8333 29.3334 32.6666 28.5001 32.6666 28.5001V18.5001C32.6666 18.5001 31.8333 19.3334 29.3333 19.3334C26.8333 19.3334 25.1666 17.6667 22.6666 17.6667C20.1666 17.6667 19.3333 18.5001 19.3333 18.5001L19.3333 34.3334" stroke="white" stroke-width="2" stroke-linecap="round" stroke-linejoin="round"/>
</svg>
