<svg width="25" height="24" viewBox="0 0 25 24" fill="none" xmlns="http://www.w3.org/2000/svg">
<path d="M21.3329 11.5C21.3329 16.1944 17.5273 20 12.8329 20C11.7561 20 10.7261 19.7998 9.77803 19.4345C9.6047 19.3678 9.51803 19.3344 9.44911 19.3185C9.38132 19.3029 9.33225 19.2963 9.26274 19.2937C9.19206 19.291 9.11452 19.299 8.95944 19.315L3.83842 19.8444C3.35018 19.8948 3.10605 19.9201 2.96205 19.8322C2.83662 19.7557 2.7512 19.6279 2.72845 19.4828C2.70235 19.3161 2.819 19.1002 3.05231 18.6684L4.68797 15.6408C4.82267 15.3915 4.89002 15.2668 4.92053 15.1469C4.95066 15.0286 4.95794 14.9432 4.9483 14.8214C4.93855 14.6981 4.88445 14.5376 4.77625 14.2166C4.48872 13.3636 4.33288 12.45 4.33288 11.5C4.33288 6.80558 8.13846 3 12.8329 3C17.5273 3 21.3329 6.80558 21.3329 11.5Z" stroke="black" stroke-width="3" stroke-linecap="round" stroke-linejoin="round"/>
</svg>
