<svg width="25" height="24" viewBox="0 0 25 24" fill="none" xmlns="http://www.w3.org/2000/svg">
<path d="M21.833 11.5C21.833 16.1944 18.0274 20 13.333 20C12.2562 20 11.2262 19.7998 10.2782 19.4345C10.1048 19.3678 10.0182 19.3344 9.94923 19.3185C9.88144 19.3029 9.83237 19.2963 9.76286 19.2937C9.69218 19.291 9.61464 19.299 9.45956 19.315L4.33854 19.8444C3.8503 19.8948 3.60618 19.9201 3.46217 19.8322C3.33675 19.7557 3.25132 19.6279 3.22858 19.4828C3.20247 19.3161 3.31912 19.1002 3.55244 18.6684L5.18809 15.6408C5.32279 15.3915 5.39015 15.2668 5.42065 15.1469C5.45078 15.0286 5.45806 14.9432 5.44843 14.8214C5.43867 14.6981 5.38457 14.5376 5.27637 14.2166C4.98885 13.3636 4.833 12.45 4.833 11.5C4.833 6.80558 8.63858 3 13.333 3C18.0274 3 21.833 6.80558 21.833 11.5Z" stroke="#17C964" stroke-width="2" stroke-linecap="round" stroke-linejoin="round"/>
</svg>
