<svg width="229" height="229" viewBox="0 0 229 229" fill="none" xmlns="http://www.w3.org/2000/svg">
<mask id="mask0_203_4318" style="mask-type:luminance" maskUnits="userSpaceOnUse" x="13" y="13" width="203" height="203">
<path d="M20.3383 69.1624H13.3633V76.1374H20.3383V69.1624Z" fill="white"/>
<path d="M20.3383 124.962H13.3633V131.937H20.3383V124.962Z" fill="white"/>
<path d="M20.3383 138.912H13.3633V145.887H20.3383V138.912Z" fill="white"/>
<path d="M20.3383 145.887H13.3633V152.862H20.3383V145.887Z" fill="white"/>
<path d="M20.3383 152.862H13.3633V159.837H20.3383V152.862Z" fill="white"/>
<path d="M27.3129 76.1372H20.3379V83.1122H27.3129V76.1372Z" fill="white"/>
<path d="M27.3129 90.0874H20.3379V97.0624H27.3129V90.0874Z" fill="white"/>
<path d="M27.3129 97.0625H20.3379V104.037H27.3129V97.0625Z" fill="white"/>
<path d="M27.3129 124.962H20.3379V131.937H27.3129V124.962Z" fill="white"/>
<path d="M27.3129 138.912H20.3379V145.887H27.3129V138.912Z" fill="white"/>
<path d="M34.2875 69.1621H27.3125V76.1371H34.2875V69.1621Z" fill="white"/>
<path d="M34.2875 83.1123H27.3125V90.0873H34.2875V83.1123Z" fill="white"/>
<path d="M34.2875 90.0874H27.3125V97.0624H34.2875V90.0874Z" fill="white"/>
<path d="M34.2875 104.037H27.3125V111.012H34.2875V104.037Z" fill="white"/>
<path d="M34.2875 111.012H27.3125V117.987H34.2875V111.012Z" fill="white"/>
<path d="M34.2875 117.987H27.3125V124.962H34.2875V117.987Z" fill="white"/>
<path d="M34.2875 131.938H27.3125V138.912H34.2875V131.938Z" fill="white"/>
<path d="M34.2875 145.887H27.3125V152.862H34.2875V145.887Z" fill="white"/>
<path d="M41.2641 69.1621H34.2891V76.1371H41.2641V69.1621Z" fill="white"/>
<path d="M41.2641 90.0874H34.2891V97.0624H41.2641V90.0874Z" fill="white"/>
<path d="M41.2641 97.0625H34.2891V104.037H41.2641V97.0625Z" fill="white"/>
<path d="M41.2641 117.987H34.2891V124.962H41.2641V117.987Z" fill="white"/>
<path d="M41.2641 124.962H34.2891V131.937H41.2641V124.962Z" fill="white"/>
<path d="M41.2641 152.862H34.2891V159.837H41.2641V152.862Z" fill="white"/>
<path d="M48.2387 90.0874H41.2637V97.0624H48.2387V90.0874Z" fill="white"/>
<path d="M48.2387 97.0625H41.2637V104.037H48.2387V97.0625Z" fill="white"/>
<path d="M48.2387 104.037H41.2637V111.012H48.2387V104.037Z" fill="white"/>
<path d="M48.2387 124.962H41.2637V131.937H48.2387V124.962Z" fill="white"/>
<path d="M48.2387 131.938H41.2637V138.912H48.2387V131.938Z" fill="white"/>
<path d="M48.2387 138.912H41.2637V145.887H48.2387V138.912Z" fill="white"/>
<path d="M55.2133 69.1624H48.2383V76.1374H55.2133V69.1624Z" fill="white"/>
<path d="M55.2133 76.1373H48.2383V83.1123H55.2133V76.1373Z" fill="white"/>
<path d="M55.2133 90.0873H48.2383V97.0623H55.2133V90.0873Z" fill="white"/>
<path d="M55.2133 97.0623H48.2383V104.037H55.2133V97.0623Z" fill="white"/>
<path d="M55.2133 111.012H48.2383V117.987H55.2133V111.012Z" fill="white"/>
<path d="M55.2133 124.962H48.2383V131.937H55.2133V124.962Z" fill="white"/>
<path d="M55.2133 138.912H48.2383V145.887H55.2133V138.912Z" fill="white"/>
<path d="M55.2133 145.887H48.2383V152.862H55.2133V145.887Z" fill="white"/>
<path d="M62.1879 69.1621H55.2129V76.1371H62.1879V69.1621Z" fill="white"/>
<path d="M62.1879 83.1123H55.2129V90.0873H62.1879V83.1123Z" fill="white"/>
<path d="M62.1879 97.0625H55.2129V104.037H62.1879V97.0625Z" fill="white"/>
<path d="M62.1879 111.012H55.2129V117.987H62.1879V111.012Z" fill="white"/>
<path d="M62.1879 124.962H55.2129V131.937H62.1879V124.962Z" fill="white"/>
<path d="M62.1879 138.912H55.2129V145.887H62.1879V138.912Z" fill="white"/>
<path d="M62.1879 152.862H55.2129V159.837H62.1879V152.862Z" fill="white"/>
<path d="M69.1625 69.1621H62.1875V76.1371H69.1625V69.1621Z" fill="white"/>
<path d="M69.1625 76.1372H62.1875V83.1122H69.1625V76.1372Z" fill="white"/>
<path d="M69.1625 83.1123H62.1875V90.0873H69.1625V83.1123Z" fill="white"/>
<path d="M69.1625 97.0625H62.1875V104.037H69.1625V97.0625Z" fill="white"/>
<path d="M69.1625 104.037H62.1875V111.012H69.1625V104.037Z" fill="white"/>
<path d="M69.1625 117.987H62.1875V124.962H69.1625V117.987Z" fill="white"/>
<path d="M69.1625 124.962H62.1875V131.937H69.1625V124.962Z" fill="white"/>
<path d="M69.1625 131.938H62.1875V138.912H69.1625V131.938Z" fill="white"/>
<path d="M69.1625 138.912H62.1875V145.887H69.1625V138.912Z" fill="white"/>
<path d="M69.1625 145.887H62.1875V152.862H69.1625V145.887Z" fill="white"/>
<path d="M69.1625 152.862H62.1875V159.837H69.1625V152.862Z" fill="white"/>
<path d="M76.1391 20.3374H69.1641V27.3124H76.1391V20.3374Z" fill="white"/>
<path d="M76.1391 34.2871H69.1641V41.2621H76.1391V34.2871Z" fill="white"/>
<path d="M76.1391 48.2373H69.1641V55.2123H76.1391V48.2373Z" fill="white"/>
<path d="M76.1391 55.2124H69.1641V62.1874H76.1391V55.2124Z" fill="white"/>
<path d="M76.1391 62.1875H69.1641V69.1625H76.1391V62.1875Z" fill="white"/>
<path d="M76.1391 69.1621H69.1641V76.1371H76.1391V69.1621Z" fill="white"/>
<path d="M76.1391 90.0874H69.1641V97.0624H76.1391V90.0874Z" fill="white"/>
<path d="M76.1391 104.037H69.1641V111.012H76.1391V104.037Z" fill="white"/>
<path d="M76.1391 111.012H69.1641V117.987H76.1391V111.012Z" fill="white"/>
<path d="M76.1391 124.962H69.1641V131.937H76.1391V124.962Z" fill="white"/>
<path d="M76.1391 131.938H69.1641V138.912H76.1391V131.938Z" fill="white"/>
<path d="M76.1391 159.837H69.1641V166.812H76.1391V159.837Z" fill="white"/>
<path d="M76.1391 166.812H69.1641V173.787H76.1391V166.812Z" fill="white"/>
<path d="M76.1391 173.787H69.1641V180.762H76.1391V173.787Z" fill="white"/>
<path d="M76.1391 187.737H69.1641V194.712H76.1391V187.737Z" fill="white"/>
<path d="M76.1391 194.712H69.1641V201.687H76.1391V194.712Z" fill="white"/>
<path d="M76.1391 208.662H69.1641V215.637H76.1391V208.662Z" fill="white"/>
<path d="M83.1137 13.3623H76.1387V20.3373H83.1137V13.3623Z" fill="white"/>
<path d="M83.1137 27.3125H76.1387V34.2875H83.1137V27.3125Z" fill="white"/>
<path d="M83.1137 34.2871H76.1387V41.2621H83.1137V34.2871Z" fill="white"/>
<path d="M83.1137 41.2622H76.1387V48.2372H83.1137V41.2622Z" fill="white"/>
<path d="M83.1137 69.1621H76.1387V76.1371H83.1137V69.1621Z" fill="white"/>
<path d="M83.1137 90.0874H76.1387V97.0624H83.1137V90.0874Z" fill="white"/>
<path d="M83.1137 104.037H76.1387V111.012H83.1137V104.037Z" fill="white"/>
<path d="M83.1137 138.912H76.1387V145.887H83.1137V138.912Z" fill="white"/>
<path d="M83.1137 145.887H76.1387V152.862H83.1137V145.887Z" fill="white"/>
<path d="M83.1137 152.862H76.1387V159.837H83.1137V152.862Z" fill="white"/>
<path d="M83.1137 159.837H76.1387V166.812H83.1137V159.837Z" fill="white"/>
<path d="M83.1137 187.737H76.1387V194.712H83.1137V187.737Z" fill="white"/>
<path d="M83.1137 208.662H76.1387V215.637H83.1137V208.662Z" fill="white"/>
<path d="M90.0883 13.3623H83.1133V20.3373H90.0883V13.3623Z" fill="white"/>
<path d="M90.0883 34.2874H83.1133V41.2624H90.0883V34.2874Z" fill="white"/>
<path d="M90.0883 41.2623H83.1133V48.2373H90.0883V41.2623Z" fill="white"/>
<path d="M90.0883 55.2123H83.1133V62.1873H90.0883V55.2123Z" fill="white"/>
<path d="M90.0883 62.1873H83.1133V69.1623H90.0883V62.1873Z" fill="white"/>
<path d="M90.0883 76.1373H83.1133V83.1123H90.0883V76.1373Z" fill="white"/>
<path d="M90.0883 97.0623H83.1133V104.037H90.0883V97.0623Z" fill="white"/>
<path d="M90.0883 104.037H83.1133V111.012H90.0883V104.037Z" fill="white"/>
<path d="M90.0883 111.012H83.1133V117.987H90.0883V111.012Z" fill="white"/>
<path d="M90.0883 124.962H83.1133V131.937H90.0883V124.962Z" fill="white"/>
<path d="M90.0883 131.937H83.1133V138.912H90.0883V131.937Z" fill="white"/>
<path d="M90.0883 145.887H83.1133V152.862H90.0883V145.887Z" fill="white"/>
<path d="M90.0883 166.812H83.1133V173.787H90.0883V166.812Z" fill="white"/>
<path d="M90.0883 173.787H83.1133V180.762H90.0883V173.787Z" fill="white"/>
<path d="M90.0883 201.687H83.1133V208.662H90.0883V201.687Z" fill="white"/>
<path d="M97.0629 20.3374H90.0879V27.3124H97.0629V20.3374Z" fill="white"/>
<path d="M97.0629 41.2622H90.0879V48.2372H97.0629V41.2622Z" fill="white"/>
<path d="M97.0629 62.1875H90.0879V69.1625H97.0629V62.1875Z" fill="white"/>
<path d="M97.0629 69.1621H90.0879V76.1371H97.0629V69.1621Z" fill="white"/>
<path d="M97.0629 76.1372H90.0879V83.1122H97.0629V76.1372Z" fill="white"/>
<path d="M97.0629 90.0874H90.0879V97.0624H97.0629V90.0874Z" fill="white"/>
<path d="M97.0629 97.0625H90.0879V104.037H97.0629V97.0625Z" fill="white"/>
<path d="M97.0629 124.962H90.0879V131.937H97.0629V124.962Z" fill="white"/>
<path d="M97.0629 145.887H90.0879V152.862H97.0629V145.887Z" fill="white"/>
<path d="M97.0629 159.837H90.0879V166.812H97.0629V159.837Z" fill="white"/>
<path d="M97.0629 166.812H90.0879V173.787H97.0629V166.812Z" fill="white"/>
<path d="M97.0629 180.762H90.0879V187.737H97.0629V180.762Z" fill="white"/>
<path d="M97.0629 194.712H90.0879V201.687H97.0629V194.712Z" fill="white"/>
<path d="M97.0629 201.688H90.0879V208.662H97.0629V201.688Z" fill="white"/>
<path d="M104.037 13.3623H97.0625V20.3373H104.037V13.3623Z" fill="white"/>
<path d="M104.037 20.3374H97.0625V27.3124H104.037V20.3374Z" fill="white"/>
<path d="M104.037 27.3125H97.0625V34.2875H104.037V27.3125Z" fill="white"/>
<path d="M104.037 34.2871H97.0625V41.2621H104.037V34.2871Z" fill="white"/>
<path d="M104.037 55.2124H97.0625V62.1874H104.037V55.2124Z" fill="white"/>
<path d="M104.037 76.1372H97.0625V83.1122H104.037V76.1372Z" fill="white"/>
<path d="M104.037 97.0625H97.0625V104.037H104.037V97.0625Z" fill="white"/>
<path d="M104.037 104.037H97.0625V111.012H104.037V104.037Z" fill="white"/>
<path d="M104.037 124.962H97.0625V131.937H104.037V124.962Z" fill="white"/>
<path d="M104.037 131.938H97.0625V138.912H104.037V131.938Z" fill="white"/>
<path d="M104.037 145.887H97.0625V152.862H104.037V145.887Z" fill="white"/>
<path d="M104.037 166.812H97.0625V173.787H104.037V166.812Z" fill="white"/>
<path d="M104.037 173.787H97.0625V180.762H104.037V173.787Z" fill="white"/>
<path d="M111.014 20.3374H104.039V27.3124H111.014V20.3374Z" fill="white"/>
<path d="M111.014 62.1875H104.039V69.1625H111.014V62.1875Z" fill="white"/>
<path d="M111.014 69.1621H104.039V76.1371H111.014V69.1621Z" fill="white"/>
<path d="M111.014 76.1372H104.039V83.1122H111.014V76.1372Z" fill="white"/>
<path d="M111.014 83.1123H104.039V90.0873H111.014V83.1123Z" fill="white"/>
<path d="M111.014 90.0874H104.039V97.0624H111.014V90.0874Z" fill="white"/>
<path d="M111.014 117.987H104.039V124.962H111.014V117.987Z" fill="white"/>
<path d="M111.014 124.962H104.039V131.937H111.014V124.962Z" fill="white"/>
<path d="M111.014 138.912H104.039V145.887H111.014V138.912Z" fill="white"/>
<path d="M111.014 145.887H104.039V152.862H111.014V145.887Z" fill="white"/>
<path d="M111.014 152.862H104.039V159.837H111.014V152.862Z" fill="white"/>
<path d="M111.014 159.837H104.039V166.812H111.014V159.837Z" fill="white"/>
<path d="M111.014 173.787H104.039V180.762H111.014V173.787Z" fill="white"/>
<path d="M111.014 187.737H104.039V194.712H111.014V187.737Z" fill="white"/>
<path d="M111.014 201.688H104.039V208.662H111.014V201.688Z" fill="white"/>
<path d="M117.987 13.3623H111.012V20.3373H117.987V13.3623Z" fill="white"/>
<path d="M117.987 55.2124H111.012V62.1874H117.987V55.2124Z" fill="white"/>
<path d="M117.987 69.1621H111.012V76.1371H117.987V69.1621Z" fill="white"/>
<path d="M117.987 83.1123H111.012V90.0873H117.987V83.1123Z" fill="white"/>
<path d="M117.987 97.0625H111.012V104.037H117.987V97.0625Z" fill="white"/>
<path d="M117.987 138.912H111.012V145.887H117.987V138.912Z" fill="white"/>
<path d="M117.987 152.862H111.012V159.837H117.987V152.862Z" fill="white"/>
<path d="M117.987 166.812H111.012V173.787H117.987V166.812Z" fill="white"/>
<path d="M117.987 201.688H111.012V208.662H117.987V201.688Z" fill="white"/>
<path d="M117.987 208.662H111.012V215.637H117.987V208.662Z" fill="white"/>
<path d="M124.963 20.3373H117.988V27.3123H124.963V20.3373Z" fill="white"/>
<path d="M124.963 41.2623H117.988V48.2373H124.963V41.2623Z" fill="white"/>
<path d="M124.963 62.1873H117.988V69.1623H124.963V62.1873Z" fill="white"/>
<path d="M124.963 76.1373H117.988V83.1123H124.963V76.1373Z" fill="white"/>
<path d="M124.963 83.1123H117.988V90.0873H124.963V83.1123Z" fill="white"/>
<path d="M124.963 111.012H117.988V117.987H124.963V111.012Z" fill="white"/>
<path d="M124.963 117.987H117.988V124.962H124.963V117.987Z" fill="white"/>
<path d="M124.963 124.962H117.988V131.937H124.963V124.962Z" fill="white"/>
<path d="M124.963 131.937H117.988V138.912H124.963V131.937Z" fill="white"/>
<path d="M124.963 152.862H117.988V159.837H124.963V152.862Z" fill="white"/>
<path d="M124.963 166.812H117.988V173.787H124.963V166.812Z" fill="white"/>
<path d="M124.963 173.787H117.988V180.762H124.963V173.787Z" fill="white"/>
<path d="M124.963 201.687H117.988V208.662H124.963V201.687Z" fill="white"/>
<path d="M124.963 208.662H117.988V215.637H124.963V208.662Z" fill="white"/>
<path d="M131.94 27.3125H124.965V34.2875H131.94V27.3125Z" fill="white"/>
<path d="M131.94 48.2373H124.965V55.2123H131.94V48.2373Z" fill="white"/>
<path d="M131.94 55.2124H124.965V62.1874H131.94V55.2124Z" fill="white"/>
<path d="M131.94 62.1875H124.965V69.1625H131.94V62.1875Z" fill="white"/>
<path d="M131.94 69.1621H124.965V76.1371H131.94V69.1621Z" fill="white"/>
<path d="M131.94 76.1372H124.965V83.1122H131.94V76.1372Z" fill="white"/>
<path d="M131.94 104.037H124.965V111.012H131.94V104.037Z" fill="white"/>
<path d="M131.94 131.938H124.965V138.912H131.94V131.938Z" fill="white"/>
<path d="M131.94 145.887H124.965V152.862H131.94V145.887Z" fill="white"/>
<path d="M131.94 152.862H124.965V159.837H131.94V152.862Z" fill="white"/>
<path d="M131.94 159.837H124.965V166.812H131.94V159.837Z" fill="white"/>
<path d="M131.94 201.688H124.965V208.662H131.94V201.688Z" fill="white"/>
<path d="M131.94 208.662H124.965V215.637H131.94V208.662Z" fill="white"/>
<path d="M138.912 20.3374H131.938V27.3124H138.912V20.3374Z" fill="white"/>
<path d="M138.912 34.2871H131.938V41.2621H138.912V34.2871Z" fill="white"/>
<path d="M138.912 83.1123H131.938V90.0873H138.912V83.1123Z" fill="white"/>
<path d="M138.912 90.0874H131.938V97.0624H138.912V90.0874Z" fill="white"/>
<path d="M138.912 104.037H131.938V111.012H138.912V104.037Z" fill="white"/>
<path d="M138.912 117.987H131.938V124.962H138.912V117.987Z" fill="white"/>
<path d="M138.912 124.962H131.938V131.937H138.912V124.962Z" fill="white"/>
<path d="M138.912 138.912H131.938V145.887H138.912V138.912Z" fill="white"/>
<path d="M138.912 159.837H131.938V166.812H138.912V159.837Z" fill="white"/>
<path d="M138.912 166.812H131.938V173.787H138.912V166.812Z" fill="white"/>
<path d="M138.912 173.787H131.938V180.762H138.912V173.787Z" fill="white"/>
<path d="M138.912 201.688H131.938V208.662H138.912V201.688Z" fill="white"/>
<path d="M138.912 208.662H131.938V215.637H138.912V208.662Z" fill="white"/>
<path d="M145.889 13.3623H138.914V20.3373H145.889V13.3623Z" fill="white"/>
<path d="M145.889 27.3125H138.914V34.2875H145.889V27.3125Z" fill="white"/>
<path d="M145.889 41.2622H138.914V48.2372H145.889V41.2622Z" fill="white"/>
<path d="M145.889 48.2373H138.914V55.2123H145.889V48.2373Z" fill="white"/>
<path d="M145.889 55.2124H138.914V62.1874H145.889V55.2124Z" fill="white"/>
<path d="M145.889 62.1875H138.914V69.1625H145.889V62.1875Z" fill="white"/>
<path d="M145.889 69.1621H138.914V76.1371H145.889V69.1621Z" fill="white"/>
<path d="M145.889 90.0874H138.914V97.0624H145.889V90.0874Z" fill="white"/>
<path d="M145.889 104.037H138.914V111.012H145.889V104.037Z" fill="white"/>
<path d="M145.889 111.012H138.914V117.987H145.889V111.012Z" fill="white"/>
<path d="M145.889 117.987H138.914V124.962H145.889V117.987Z" fill="white"/>
<path d="M145.889 124.962H138.914V131.937H145.889V124.962Z" fill="white"/>
<path d="M145.889 138.912H138.914V145.887H145.889V138.912Z" fill="white"/>
<path d="M145.889 159.837H138.914V166.812H145.889V159.837Z" fill="white"/>
<path d="M145.889 173.787H138.914V180.762H145.889V173.787Z" fill="white"/>
<path d="M145.889 187.737H138.914V194.712H145.889V187.737Z" fill="white"/>
<path d="M145.889 201.688H138.914V208.662H145.889V201.688Z" fill="white"/>
<path d="M145.889 208.662H138.914V215.637H145.889V208.662Z" fill="white"/>
<path d="M152.862 34.2871H145.887V41.2621H152.862V34.2871Z" fill="white"/>
<path d="M152.862 41.2622H145.887V48.2372H152.862V41.2622Z" fill="white"/>
<path d="M152.862 62.1875H145.887V69.1625H152.862V62.1875Z" fill="white"/>
<path d="M152.862 76.1372H145.887V83.1122H152.862V76.1372Z" fill="white"/>
<path d="M152.862 83.1123H145.887V90.0873H152.862V83.1123Z" fill="white"/>
<path d="M152.862 131.938H145.887V138.912H152.862V131.938Z" fill="white"/>
<path d="M152.862 138.912H145.887V145.887H152.862V138.912Z" fill="white"/>
<path d="M152.862 145.887H145.887V152.862H152.862V145.887Z" fill="white"/>
<path d="M152.862 152.862H145.887V159.837H152.862V152.862Z" fill="white"/>
<path d="M152.862 180.762H145.887V187.737H152.862V180.762Z" fill="white"/>
<path d="M152.862 187.737H145.887V194.712H152.862V187.737Z" fill="white"/>
<path d="M159.838 13.3623H152.863V20.3373H159.838V13.3623Z" fill="white"/>
<path d="M159.838 34.2874H152.863V41.2624H159.838V34.2874Z" fill="white"/>
<path d="M159.838 48.2373H152.863V55.2123H159.838V48.2373Z" fill="white"/>
<path d="M159.838 55.2123H152.863V62.1873H159.838V55.2123Z" fill="white"/>
<path d="M159.838 62.1873H152.863V69.1623H159.838V62.1873Z" fill="white"/>
<path d="M159.838 76.1373H152.863V83.1123H159.838V76.1373Z" fill="white"/>
<path d="M159.838 90.0873H152.863V97.0623H159.838V90.0873Z" fill="white"/>
<path d="M159.838 97.0623H152.863V104.037H159.838V97.0623Z" fill="white"/>
<path d="M159.838 111.012H152.863V117.987H159.838V111.012Z" fill="white"/>
<path d="M159.838 117.987H152.863V124.962H159.838V117.987Z" fill="white"/>
<path d="M159.838 152.862H152.863V159.837H159.838V152.862Z" fill="white"/>
<path d="M159.838 159.837H152.863V166.812H159.838V159.837Z" fill="white"/>
<path d="M159.838 166.812H152.863V173.787H159.838V166.812Z" fill="white"/>
<path d="M159.838 173.787H152.863V180.762H159.838V173.787Z" fill="white"/>
<path d="M159.838 180.762H152.863V187.737H159.838V180.762Z" fill="white"/>
<path d="M159.838 194.712H152.863V201.687H159.838V194.712Z" fill="white"/>
<path d="M159.838 201.687H152.863V208.662H159.838V201.687Z" fill="white"/>
<path d="M166.815 69.1621H159.84V76.1371H166.815V69.1621Z" fill="white"/>
<path d="M166.815 90.0874H159.84V97.0624H166.815V90.0874Z" fill="white"/>
<path d="M166.815 104.037H159.84V111.012H166.815V104.037Z" fill="white"/>
<path d="M166.815 111.012H159.84V117.987H166.815V111.012Z" fill="white"/>
<path d="M166.815 124.962H159.84V131.937H166.815V124.962Z" fill="white"/>
<path d="M166.815 138.912H159.84V145.887H166.815V138.912Z" fill="white"/>
<path d="M166.815 152.862H159.84V159.837H166.815V152.862Z" fill="white"/>
<path d="M166.815 180.762H159.84V187.737H166.815V180.762Z" fill="white"/>
<path d="M166.815 201.688H159.84V208.662H166.815V201.688Z" fill="white"/>
<path d="M166.815 208.662H159.84V215.637H166.815V208.662Z" fill="white"/>
<path d="M173.787 69.1621H166.812V76.1371H173.787V69.1621Z" fill="white"/>
<path d="M173.787 83.1123H166.812V90.0873H173.787V83.1123Z" fill="white"/>
<path d="M173.787 90.0874H166.812V97.0624H173.787V90.0874Z" fill="white"/>
<path d="M173.787 97.0625H166.812V104.037H173.787V97.0625Z" fill="white"/>
<path d="M173.787 111.012H166.812V117.987H173.787V111.012Z" fill="white"/>
<path d="M173.787 138.912H166.812V145.887H173.787V138.912Z" fill="white"/>
<path d="M173.787 152.862H166.812V159.837H173.787V152.862Z" fill="white"/>
<path d="M173.787 166.812H166.812V173.787H173.787V166.812Z" fill="white"/>
<path d="M173.787 180.762H166.812V187.737H173.787V180.762Z" fill="white"/>
<path d="M173.787 187.737H166.812V194.712H173.787V187.737Z" fill="white"/>
<path d="M173.787 194.712H166.812V201.687H173.787V194.712Z" fill="white"/>
<path d="M180.764 69.1621H173.789V76.1371H180.764V69.1621Z" fill="white"/>
<path d="M180.764 76.1372H173.789V83.1122H180.764V76.1372Z" fill="white"/>
<path d="M180.764 90.0874H173.789V97.0624H180.764V90.0874Z" fill="white"/>
<path d="M180.764 104.037H173.789V111.012H180.764V104.037Z" fill="white"/>
<path d="M180.764 124.962H173.789V131.937H180.764V124.962Z" fill="white"/>
<path d="M180.764 152.862H173.789V159.837H180.764V152.862Z" fill="white"/>
<path d="M180.764 180.762H173.789V187.737H180.764V180.762Z" fill="white"/>
<path d="M180.764 194.712H173.789V201.687H180.764V194.712Z" fill="white"/>
<path d="M187.737 76.1372H180.762V83.1122H187.737V76.1372Z" fill="white"/>
<path d="M187.737 104.037H180.762V111.012H187.737V104.037Z" fill="white"/>
<path d="M187.737 124.962H180.762V131.937H187.737V124.962Z" fill="white"/>
<path d="M187.737 131.938H180.762V138.912H187.737V131.938Z" fill="white"/>
<path d="M187.737 152.862H180.762V159.837H187.737V152.862Z" fill="white"/>
<path d="M187.737 159.837H180.762V166.812H187.737V159.837Z" fill="white"/>
<path d="M187.737 166.812H180.762V173.787H187.737V166.812Z" fill="white"/>
<path d="M187.737 173.787H180.762V180.762H187.737V173.787Z" fill="white"/>
<path d="M187.737 180.762H180.762V187.737H187.737V180.762Z" fill="white"/>
<path d="M187.737 187.737H180.762V194.712H187.737V187.737Z" fill="white"/>
<path d="M194.713 69.1624H187.738V76.1374H194.713V69.1624Z" fill="white"/>
<path d="M194.713 104.037H187.738V111.012H194.713V104.037Z" fill="white"/>
<path d="M194.713 111.012H187.738V117.987H194.713V111.012Z" fill="white"/>
<path d="M194.713 117.987H187.738V124.962H194.713V117.987Z" fill="white"/>
<path d="M194.713 124.962H187.738V131.937H194.713V124.962Z" fill="white"/>
<path d="M194.713 131.937H187.738V138.912H194.713V131.937Z" fill="white"/>
<path d="M194.713 145.887H187.738V152.862H194.713V145.887Z" fill="white"/>
<path d="M194.713 152.862H187.738V159.837H194.713V152.862Z" fill="white"/>
<path d="M194.713 159.837H187.738V166.812H194.713V159.837Z" fill="white"/>
<path d="M194.713 166.812H187.738V173.787H194.713V166.812Z" fill="white"/>
<path d="M194.713 180.762H187.738V187.737H194.713V180.762Z" fill="white"/>
<path d="M194.713 187.737H187.738V194.712H194.713V187.737Z" fill="white"/>
<path d="M194.713 194.712H187.738V201.687H194.713V194.712Z" fill="white"/>
<path d="M194.713 208.662H187.738V215.637H194.713V208.662Z" fill="white"/>
<path d="M201.69 76.1372H194.715V83.1122H201.69V76.1372Z" fill="white"/>
<path d="M201.69 83.1123H194.715V90.0873H201.69V83.1123Z" fill="white"/>
<path d="M201.69 90.0874H194.715V97.0624H201.69V90.0874Z" fill="white"/>
<path d="M201.69 138.912H194.715V145.887H201.69V138.912Z" fill="white"/>
<path d="M201.69 145.887H194.715V152.862H201.69V145.887Z" fill="white"/>
<path d="M201.69 152.862H194.715V159.837H201.69V152.862Z" fill="white"/>
<path d="M201.69 180.762H194.715V187.737H201.69V180.762Z" fill="white"/>
<path d="M201.69 187.737H194.715V194.712H201.69V187.737Z" fill="white"/>
<path d="M201.69 208.662H194.715V215.637H201.69V208.662Z" fill="white"/>
<path d="M208.662 69.1621H201.688V76.1371H208.662V69.1621Z" fill="white"/>
<path d="M208.662 76.1372H201.688V83.1122H208.662V76.1372Z" fill="white"/>
<path d="M208.662 83.1123H201.688V90.0873H208.662V83.1123Z" fill="white"/>
<path d="M208.662 90.0874H201.688V97.0624H208.662V90.0874Z" fill="white"/>
<path d="M208.662 131.938H201.688V138.912H208.662V131.938Z" fill="white"/>
<path d="M208.662 152.862H201.688V159.837H208.662V152.862Z" fill="white"/>
<path d="M208.662 166.812H201.688V173.787H208.662V166.812Z" fill="white"/>
<path d="M208.662 173.787H201.688V180.762H208.662V173.787Z" fill="white"/>
<path d="M208.662 187.737H201.688V194.712H208.662V187.737Z" fill="white"/>
<path d="M208.662 201.688H201.688V208.662H208.662V201.688Z" fill="white"/>
<path d="M215.639 76.1372H208.664V83.1122H215.639V76.1372Z" fill="white"/>
<path d="M215.639 83.1123H208.664V90.0873H215.639V83.1123Z" fill="white"/>
<path d="M215.639 90.0874H208.664V97.0624H215.639V90.0874Z" fill="white"/>
<path d="M215.639 104.037H208.664V111.012H215.639V104.037Z" fill="white"/>
<path d="M215.639 117.987H208.664V124.962H215.639V117.987Z" fill="white"/>
<path d="M215.639 131.938H208.664V138.912H215.639V131.938Z" fill="white"/>
<path d="M215.639 145.887H208.664V152.862H215.639V145.887Z" fill="white"/>
<path d="M215.639 152.862H208.664V159.837H215.639V152.862Z" fill="white"/>
<path d="M215.639 159.837H208.664V166.812H215.639V159.837Z" fill="white"/>
<path d="M215.639 180.762H208.664V187.737H215.639V180.762Z" fill="white"/>
<path d="M215.639 187.737H208.664V194.712H215.639V187.737Z" fill="white"/>
<path d="M215.639 201.688H208.664V208.662H215.639V201.688Z" fill="white"/>
</mask>
<g mask="url(#mask0_203_4318)">
<path d="M215.638 13.3623H13.3633V215.637H215.638V13.3623Z" fill="#17C964"/>
</g>
<mask id="mask1_203_4318" style="mask-type:luminance" maskUnits="userSpaceOnUse" x="13" y="13" width="50" height="50">
<path d="M20.3383 13.3623H13.3633V20.3373H20.3383V13.3623Z" fill="white"/>
<path d="M20.3383 20.3373H13.3633V27.3123H20.3383V20.3373Z" fill="white"/>
<path d="M20.3383 27.3123H13.3633V34.2873H20.3383V27.3123Z" fill="white"/>
<path d="M20.3383 34.2874H13.3633V41.2624H20.3383V34.2874Z" fill="white"/>
<path d="M20.3383 41.2623H13.3633V48.2373H20.3383V41.2623Z" fill="white"/>
<path d="M20.3383 48.2373H13.3633V55.2123H20.3383V48.2373Z" fill="white"/>
<path d="M20.3383 55.2123H13.3633V62.1873H20.3383V55.2123Z" fill="white"/>
<path d="M27.3129 13.3623H20.3379V20.3373H27.3129V13.3623Z" fill="white"/>
<path d="M27.3129 55.2124H20.3379V62.1874H27.3129V55.2124Z" fill="white"/>
<path d="M34.2875 13.3623H27.3125V20.3373H34.2875V13.3623Z" fill="white"/>
<path d="M34.2875 55.2124H27.3125V62.1874H34.2875V55.2124Z" fill="white"/>
<path d="M41.2641 13.3623H34.2891V20.3373H41.2641V13.3623Z" fill="white"/>
<path d="M41.2641 55.2124H34.2891V62.1874H41.2641V55.2124Z" fill="white"/>
<path d="M48.2387 13.3623H41.2637V20.3373H48.2387V13.3623Z" fill="white"/>
<path d="M48.2387 55.2124H41.2637V62.1874H48.2387V55.2124Z" fill="white"/>
<path d="M55.2133 13.3623H48.2383V20.3373H55.2133V13.3623Z" fill="white"/>
<path d="M55.2133 55.2123H48.2383V62.1873H55.2133V55.2123Z" fill="white"/>
<path d="M62.1879 13.3623H55.2129V20.3373H62.1879V13.3623Z" fill="white"/>
<path d="M62.1879 20.3374H55.2129V27.3124H62.1879V20.3374Z" fill="white"/>
<path d="M62.1879 27.3125H55.2129V34.2875H62.1879V27.3125Z" fill="white"/>
<path d="M62.1879 34.2871H55.2129V41.2621H62.1879V34.2871Z" fill="white"/>
<path d="M62.1879 41.2622H55.2129V48.2372H62.1879V41.2622Z" fill="white"/>
<path d="M62.1879 48.2373H55.2129V55.2123H62.1879V48.2373Z" fill="white"/>
<path d="M62.1879 55.2124H55.2129V62.1874H62.1879V55.2124Z" fill="white"/>
</mask>
<g mask="url(#mask1_203_4318)">
<path d="M62.1883 13.3623H13.3633V62.1873H62.1883V13.3623Z" fill="#17C964"/>
</g>
<mask id="mask2_203_4318" style="mask-type:luminance" maskUnits="userSpaceOnUse" x="27" y="27" width="22" height="22">
<path d="M34.2875 27.3125H27.3125V34.2875H34.2875V27.3125Z" fill="white"/>
<path d="M34.2875 34.2875H27.3125V41.2625H34.2875V34.2875Z" fill="white"/>
<path d="M34.2875 41.2625H27.3125V48.2375H34.2875V41.2625Z" fill="white"/>
<path d="M41.2621 27.3125H34.2871V34.2875H41.2621V27.3125Z" fill="white"/>
<path d="M41.2621 34.2876H34.2871V41.2626H41.2621V34.2876Z" fill="white"/>
<path d="M41.2621 41.2627H34.2871V48.2377H41.2621V41.2627Z" fill="white"/>
<path d="M48.2367 27.3125H41.2617V34.2875H48.2367V27.3125Z" fill="white"/>
<path d="M48.2367 34.2876H41.2617V41.2626H48.2367V34.2876Z" fill="white"/>
<path d="M48.2367 41.2627H41.2617V48.2377H48.2367V41.2627Z" fill="white"/>
</mask>
<g mask="url(#mask2_203_4318)">
<path d="M48.2375 27.3125H27.3125V48.2375H48.2375V27.3125Z" fill="#17C964"/>
</g>
<mask id="mask3_203_4318" style="mask-type:luminance" maskUnits="userSpaceOnUse" x="166" y="13" width="50" height="50">
<path d="M173.787 13.3623H166.812V20.3373H173.787V13.3623Z" fill="white"/>
<path d="M173.787 20.3373H166.812V27.3123H173.787V20.3373Z" fill="white"/>
<path d="M173.787 27.3123H166.812V34.2873H173.787V27.3123Z" fill="white"/>
<path d="M173.787 34.2874H166.812V41.2624H173.787V34.2874Z" fill="white"/>
<path d="M173.787 41.2623H166.812V48.2373H173.787V41.2623Z" fill="white"/>
<path d="M173.787 48.2373H166.812V55.2123H173.787V48.2373Z" fill="white"/>
<path d="M173.787 55.2123H166.812V62.1873H173.787V55.2123Z" fill="white"/>
<path d="M180.764 13.3623H173.789V20.3373H180.764V13.3623Z" fill="white"/>
<path d="M180.764 55.2124H173.789V62.1874H180.764V55.2124Z" fill="white"/>
<path d="M187.737 13.3623H180.762V20.3373H187.737V13.3623Z" fill="white"/>
<path d="M187.737 55.2124H180.762V62.1874H187.737V55.2124Z" fill="white"/>
<path d="M194.713 13.3623H187.738V20.3373H194.713V13.3623Z" fill="white"/>
<path d="M194.713 55.2124H187.738V62.1874H194.713V55.2124Z" fill="white"/>
<path d="M201.686 13.3623H194.711V20.3373H201.686V13.3623Z" fill="white"/>
<path d="M201.686 55.2124H194.711V62.1874H201.686V55.2124Z" fill="white"/>
<path d="M208.662 13.3623H201.688V20.3373H208.662V13.3623Z" fill="white"/>
<path d="M208.662 55.2123H201.688V62.1873H208.662V55.2123Z" fill="white"/>
<path d="M215.639 13.3623H208.664V20.3373H215.639V13.3623Z" fill="white"/>
<path d="M215.639 20.3374H208.664V27.3124H215.639V20.3374Z" fill="white"/>
<path d="M215.639 27.3125H208.664V34.2875H215.639V27.3125Z" fill="white"/>
<path d="M215.639 34.2871H208.664V41.2621H215.639V34.2871Z" fill="white"/>
<path d="M215.639 41.2622H208.664V48.2372H215.639V41.2622Z" fill="white"/>
<path d="M215.639 48.2373H208.664V55.2123H215.639V48.2373Z" fill="white"/>
<path d="M215.639 55.2124H208.664V62.1874H215.639V55.2124Z" fill="white"/>
</mask>
<g mask="url(#mask3_203_4318)">
<path d="M215.638 13.3623H166.812V62.1873H215.638V13.3623Z" fill="#17C964"/>
</g>
<mask id="mask4_203_4318" style="mask-type:luminance" maskUnits="userSpaceOnUse" x="180" y="27" width="22" height="22">
<path d="M187.737 27.3125H180.762V34.2875H187.737V27.3125Z" fill="white"/>
<path d="M187.737 34.2875H180.762V41.2625H187.737V34.2875Z" fill="white"/>
<path d="M187.737 41.2625H180.762V48.2375H187.737V41.2625Z" fill="white"/>
<path d="M194.713 27.3125H187.738V34.2875H194.713V27.3125Z" fill="white"/>
<path d="M194.713 34.2876H187.738V41.2626H194.713V34.2876Z" fill="white"/>
<path d="M194.713 41.2627H187.738V48.2377H194.713V41.2627Z" fill="white"/>
<path d="M201.686 27.3125H194.711V34.2875H201.686V27.3125Z" fill="white"/>
<path d="M201.686 34.2876H194.711V41.2626H201.686V34.2876Z" fill="white"/>
<path d="M201.686 41.2627H194.711V48.2377H201.686V41.2627Z" fill="white"/>
</mask>
<g mask="url(#mask4_203_4318)">
<path d="M201.687 27.3125H180.762V48.2375H201.687V27.3125Z" fill="#17C964"/>
</g>
<mask id="mask5_203_4318" style="mask-type:luminance" maskUnits="userSpaceOnUse" x="13" y="166" width="50" height="50">
<path d="M20.3383 166.812H13.3633V173.787H20.3383V166.812Z" fill="white"/>
<path d="M20.3383 173.787H13.3633V180.762H20.3383V173.787Z" fill="white"/>
<path d="M20.3383 180.762H13.3633V187.737H20.3383V180.762Z" fill="white"/>
<path d="M20.3383 187.738H13.3633V194.713H20.3383V187.738Z" fill="white"/>
<path d="M20.3383 194.713H13.3633V201.688H20.3383V194.713Z" fill="white"/>
<path d="M20.3383 201.688H13.3633V208.662H20.3383V201.688Z" fill="white"/>
<path d="M20.3383 208.662H13.3633V215.637H20.3383V208.662Z" fill="white"/>
<path d="M27.3129 166.812H20.3379V173.787H27.3129V166.812Z" fill="white"/>
<path d="M27.3129 208.663H20.3379V215.638H27.3129V208.663Z" fill="white"/>
<path d="M34.2875 166.812H27.3125V173.787H34.2875V166.812Z" fill="white"/>
<path d="M34.2875 208.663H27.3125V215.638H34.2875V208.663Z" fill="white"/>
<path d="M41.2641 166.812H34.2891V173.787H41.2641V166.812Z" fill="white"/>
<path d="M41.2641 208.663H34.2891V215.638H41.2641V208.663Z" fill="white"/>
<path d="M48.2387 166.812H41.2637V173.787H48.2387V166.812Z" fill="white"/>
<path d="M48.2387 208.663H41.2637V215.638H48.2387V208.663Z" fill="white"/>
<path d="M55.2133 166.812H48.2383V173.787H55.2133V166.812Z" fill="white"/>
<path d="M55.2133 208.662H48.2383V215.637H55.2133V208.662Z" fill="white"/>
<path d="M62.1879 166.812H55.2129V173.787H62.1879V166.812Z" fill="white"/>
<path d="M62.1879 173.788H55.2129V180.763H62.1879V173.788Z" fill="white"/>
<path d="M62.1879 180.763H55.2129V187.738H62.1879V180.763Z" fill="white"/>
<path d="M62.1879 187.737H55.2129V194.712H62.1879V187.737Z" fill="white"/>
<path d="M62.1879 194.712H55.2129V201.687H62.1879V194.712Z" fill="white"/>
<path d="M62.1879 201.688H55.2129V208.662H62.1879V201.688Z" fill="white"/>
<path d="M62.1879 208.663H55.2129V215.638H62.1879V208.663Z" fill="white"/>
</mask>
<g mask="url(#mask5_203_4318)">
<path d="M62.1883 166.812H13.3633V215.638H62.1883V166.812Z" fill="#17C964"/>
</g>
<mask id="mask6_203_4318" style="mask-type:luminance" maskUnits="userSpaceOnUse" x="27" y="180" width="22" height="22">
<path d="M34.2875 180.763H27.3125V187.738H34.2875V180.763Z" fill="white"/>
<path d="M34.2875 187.738H27.3125V194.713H34.2875V187.738Z" fill="white"/>
<path d="M34.2875 194.713H27.3125V201.688H34.2875V194.713Z" fill="white"/>
<path d="M41.2621 180.763H34.2871V187.738H41.2621V180.763Z" fill="white"/>
<path d="M41.2621 187.738H34.2871V194.713H41.2621V187.738Z" fill="white"/>
<path d="M41.2621 194.713H34.2871V201.688H41.2621V194.713Z" fill="white"/>
<path d="M48.2367 180.763H41.2617V187.738H48.2367V180.763Z" fill="white"/>
<path d="M48.2367 187.738H41.2617V194.713H48.2367V187.738Z" fill="white"/>
<path d="M48.2367 194.713H41.2617V201.688H48.2367V194.713Z" fill="white"/>
</mask>
<g mask="url(#mask6_203_4318)">
<path d="M48.2375 180.763H27.3125V201.688H48.2375V180.763Z" fill="#17C964"/>
</g>
<rect y="4" width="4" height="16" fill="#17C964"/>
<rect y="4" width="4" height="20" transform="rotate(-90 0 4)" fill="#17C964"/>
<rect x="229" y="225" width="4" height="16" transform="rotate(180 229 225)" fill="#17C964"/>
<rect x="229" y="225" width="4" height="20" transform="rotate(90 229 225)" fill="#17C964"/>
<rect width="4" height="16" transform="matrix(-1 0 0 1 229 4)" fill="#17C964"/>
<rect width="4" height="20" transform="matrix(4.37114e-08 -1 -1 -4.37114e-08 229 4)" fill="#17C964"/>
<rect width="4" height="16" transform="matrix(1 -8.74228e-08 -8.74228e-08 -1 0 225)" fill="#17C964"/>
<rect width="4" height="20" transform="matrix(4.37114e-08 1 1 -4.37114e-08 0 225)" fill="#17C964"/>
</svg>
