<svg width="16" height="16" viewBox="0 0 16 16" fill="none" xmlns="http://www.w3.org/2000/svg">
<g clip-path="url(#clip0_203_3993)">
<path d="M8.00001 9.99992C9.10458 9.99992 10 9.10449 10 7.99992C10 6.89535 9.10458 5.99992 8.00001 5.99992C6.89544 5.99992 6.00001 6.89535 6.00001 7.99992C6.00001 9.10449 6.89544 9.99992 8.00001 9.99992Z" stroke="#71717A" stroke-linecap="round" stroke-linejoin="round"/>
<path d="M12.4849 9.8181C12.4042 10.0009 12.3801 10.2037 12.4158 10.4003C12.4514 10.5969 12.5451 10.7783 12.6849 10.9211L12.7212 10.9575C12.8339 11.0701 12.9233 11.2038 12.9843 11.3509C13.0453 11.4981 13.0767 11.6558 13.0767 11.8151C13.0767 11.9744 13.0453 12.1321 12.9843 12.2792C12.9233 12.4264 12.8339 12.5601 12.7212 12.6726C12.6087 12.7853 12.475 12.8748 12.3278 12.9357C12.1807 12.9967 12.0229 13.0281 11.8636 13.0281C11.7044 13.0281 11.5466 12.9967 11.3995 12.9357C11.2523 12.8748 11.1186 12.7853 11.0061 12.6726L10.9697 12.6363C10.8269 12.4966 10.6455 12.4028 10.4489 12.3672C10.2522 12.3315 10.0495 12.3556 9.86668 12.4363C9.68742 12.5131 9.53455 12.6407 9.42686 12.8033C9.31918 12.9659 9.26139 13.1564 9.26062 13.3514V13.4545C9.26062 13.7759 9.13291 14.0842 8.90559 14.3116C8.67828 14.5389 8.36997 14.6666 8.0485 14.6666C7.72702 14.6666 7.41871 14.5389 7.1914 14.3116C6.96408 14.0842 6.83637 13.7759 6.83637 13.4545V13.3999C6.83168 13.1993 6.76675 13.0048 6.65002 12.8416C6.53328 12.6783 6.37015 12.554 6.18183 12.4848C5.99903 12.4041 5.79626 12.38 5.59965 12.4157C5.40305 12.4513 5.22163 12.545 5.0788 12.6848L5.04243 12.7211C4.92986 12.8338 4.79618 12.9232 4.64903 12.9842C4.50188 13.0452 4.34415 13.0766 4.18486 13.0766C4.02557 13.0766 3.86784 13.0452 3.72069 12.9842C3.57354 12.9232 3.43986 12.8338 3.32728 12.7211C3.21458 12.6086 3.12518 12.4749 3.06418 12.3277C3.00318 12.1806 2.97178 12.0228 2.97178 11.8636C2.97178 11.7043 3.00318 11.5465 3.06418 11.3994C3.12518 11.2522 3.21458 11.1186 3.32728 11.006L3.36365 10.9696C3.50337 10.8268 3.59709 10.6454 3.63274 10.4488C3.66839 10.2522 3.64432 10.0494 3.56365 9.86659C3.48682 9.68733 3.35926 9.53445 3.19666 9.42677C3.03406 9.31909 2.84352 9.2613 2.6485 9.26052H2.54546C2.22399 9.26052 1.91568 9.13282 1.68837 8.9055C1.46105 8.67819 1.33334 8.36988 1.33334 8.0484C1.33334 7.72693 1.46105 7.41862 1.68837 7.1913C1.91568 6.96399 2.22399 6.83628 2.54546 6.83628H2.60001C2.80061 6.83159 2.99516 6.76666 3.15837 6.64993C3.32158 6.53319 3.4459 6.37006 3.51516 6.18174C3.59584 5.99894 3.6199 5.79617 3.58426 5.59956C3.54861 5.40296 3.45488 5.22154 3.31516 5.07871L3.2788 5.04234C3.1661 4.92977 3.07669 4.79609 3.0157 4.64894C2.9547 4.50179 2.9233 4.34406 2.9233 4.18477C2.9233 4.02548 2.9547 3.86775 3.0157 3.7206C3.07669 3.57345 3.1661 3.43976 3.2788 3.32719C3.39137 3.21449 3.52505 3.12509 3.6722 3.06409C3.81935 3.00309 3.97708 2.97169 4.13637 2.97169C4.29567 2.97169 4.45339 3.00309 4.60054 3.06409C4.74769 3.12509 4.88138 3.21449 4.99395 3.32719L5.03031 3.36356C5.17315 3.50327 5.35457 3.597 5.55117 3.63265C5.74777 3.6683 5.95055 3.64423 6.13334 3.56355H6.18183C6.36108 3.48673 6.51396 3.35916 6.62164 3.19656C6.72932 3.03396 6.78711 2.84343 6.78789 2.6484V2.54537C6.78789 2.2239 6.91559 1.91559 7.14291 1.68827C7.37023 1.46096 7.67854 1.33325 8.00001 1.33325C8.32148 1.33325 8.62979 1.46096 8.85711 1.68827C9.08443 1.91559 9.21213 2.2239 9.21213 2.54537V2.59992C9.21291 2.79494 9.2707 2.98548 9.37838 3.14808C9.48606 3.31068 9.63894 3.43824 9.81819 3.51507C10.001 3.59575 10.2038 3.61981 10.4004 3.58416C10.597 3.54852 10.7784 3.45479 10.9212 3.31507L10.9576 3.27871C11.0702 3.16601 11.2038 3.0766 11.351 3.0156C11.4981 2.9546 11.6559 2.92321 11.8152 2.92321C11.9745 2.92321 12.1322 2.9546 12.2793 3.0156C12.4265 3.0766 12.5602 3.16601 12.6727 3.27871C12.7854 3.39128 12.8748 3.52496 12.9358 3.67211C12.9968 3.81926 13.0282 3.97699 13.0282 4.13628C13.0282 4.29557 12.9968 4.4533 12.9358 4.60045C12.8748 4.7476 12.7854 4.88128 12.6727 4.99386L12.6364 5.03022C12.4967 5.17306 12.4029 5.35447 12.3673 5.55108C12.3316 5.74768 12.3557 5.95045 12.4364 6.13325V6.18174C12.5132 6.36099 12.6408 6.51387 12.8034 6.62155C12.966 6.72923 13.1565 6.78702 13.3515 6.7878H13.4546C13.776 6.7878 14.0843 6.9155 14.3117 7.14282C14.539 7.37014 14.6667 7.67844 14.6667 7.99992C14.6667 8.32139 14.539 8.6297 14.3117 8.85702C14.0843 9.08433 13.776 9.21204 13.4546 9.21204H13.4C13.205 9.21282 13.0145 9.27061 12.8519 9.37829C12.6893 9.48597 12.5617 9.63885 12.4849 9.8181Z" stroke="#71717A" stroke-linecap="round" stroke-linejoin="round"/>
</g>
<defs>
<clipPath id="clip0_203_3993">
<rect width="16" height="16" fill="white"/>
</clipPath>
</defs>
</svg>
