<svg width="25" height="24" viewBox="0 0 25 24" fill="none" xmlns="http://www.w3.org/2000/svg">
<path d="M7.16675 13L7.95121 14.5689C8.2167 15.0999 8.34944 15.3654 8.52678 15.5954C8.68414 15.7996 8.86715 15.9826 9.0713 16.14C9.30136 16.3173 9.56685 16.4501 10.0978 16.7155L11.6667 17.5L10.0978 18.2845C9.56685 18.5499 9.30136 18.6827 9.0713 18.86C8.86716 19.0174 8.68414 19.2004 8.52678 19.4046C8.34944 19.6346 8.2167 19.9001 7.95121 20.4311L7.16675 22L6.38229 20.4311C6.1168 19.9001 5.98406 19.6346 5.80672 19.4046C5.64936 19.2004 5.46634 19.0174 5.26219 18.86C5.03213 18.6827 4.76664 18.5499 4.23566 18.2845L2.66675 17.5L4.23566 16.7155C4.76664 16.4501 5.03213 16.3173 5.26219 16.14C5.46634 15.9826 5.64936 15.7996 5.80672 15.5954C5.98406 15.3654 6.1168 15.0999 6.38229 14.5689L7.16675 13Z" stroke="#222724" stroke-opacity="0.35" stroke-width="2" stroke-linecap="round" stroke-linejoin="round"/>
<path d="M15.6667 2L16.8454 5.06442C17.1274 5.79765 17.2684 6.16426 17.4877 6.47264C17.682 6.74595 17.9208 6.98475 18.1941 7.17909C18.5025 7.39836 18.8691 7.53937 19.6023 7.82138L22.6667 9L19.6023 10.1786C18.8691 10.4606 18.5025 10.6016 18.1941 10.8209C17.9208 11.0153 17.682 11.254 17.4877 11.5274C17.2684 11.8357 17.1274 12.2024 16.8454 12.9356L15.6667 16L14.4881 12.9356C14.2061 12.2024 14.0651 11.8357 13.8458 11.5274C13.6515 11.254 13.4127 11.0153 13.1394 10.8209C12.831 10.6016 12.4644 10.4606 11.7312 10.1786L8.66675 9L11.7312 7.82138C12.4644 7.53937 12.831 7.39836 13.1394 7.17909C13.4127 6.98475 13.6515 6.74595 13.8458 6.47264C14.0651 6.16426 14.2061 5.79765 14.4881 5.06442L15.6667 2Z" stroke="#222724" stroke-opacity="0.35" stroke-width="2" stroke-linecap="round" stroke-linejoin="round"/>
</svg>
