<svg width="20" height="20" viewBox="0 0 20 20" fill="none" xmlns="http://www.w3.org/2000/svg">
<path fill-rule="evenodd" clip-rule="evenodd" d="M20 10C20 15.5228 15.5228 20 10 20C4.47715 20 0 15.5228 0 10C0 4.47715 4.47715 0 10 0C15.5228 0 20 4.47715 20 10ZM10.3583 7.38239C9.38566 7.78695 7.44173 8.62428 4.52653 9.89439C4.05315 10.0826 3.80517 10.2668 3.78259 10.4469C3.74444 10.7512 4.12555 10.871 4.64452 11.0342C4.71511 11.0564 4.78825 11.0794 4.86323 11.1038C5.37382 11.2698 6.06064 11.4639 6.41769 11.4716C6.74157 11.4786 7.10306 11.3451 7.50215 11.0711C10.2259 9.23245 11.6319 8.30313 11.7202 8.28309C11.7825 8.26896 11.8688 8.25119 11.9273 8.30316C11.9857 8.35513 11.98 8.45355 11.9738 8.47996C11.936 8.6409 10.4401 10.0317 9.66589 10.7514C9.42455 10.9758 9.25335 11.135 9.21835 11.1713C9.13996 11.2527 9.06006 11.3298 8.98327 11.4038C8.50893 11.8611 8.15321 12.204 9.00296 12.7639C9.41132 13.033 9.73809 13.2556 10.0641 13.4776C10.4201 13.72 10.7752 13.9618 11.2346 14.263C11.3517 14.3397 11.4635 14.4194 11.5724 14.4971C11.9867 14.7924 12.3589 15.0578 12.8188 15.0155C13.086 14.9909 13.362 14.7396 13.5022 13.9902C13.8335 12.2192 14.4846 8.382 14.6351 6.80077C14.6483 6.66223 14.6317 6.48493 14.6184 6.4071C14.6051 6.32927 14.5773 6.21838 14.4761 6.13629C14.3563 6.03907 14.1713 6.01857 14.0886 6.02002C13.7125 6.02665 13.1354 6.2273 10.3583 7.38239Z" fill="black"/>
</svg>
